Coordinates
version=1
nRows=13
nColumns=40
inDegrees=yes

Units are S.I. units (second, meters, Newtons, ...)
If the header above contains a line with 'inDegrees', this indicates whether rotational values are in degrees (yes) or radians (no).

endheader
time	pelvis_tilt	pelvis_list	pelvis_rotation	pelvis_tx	pelvis_ty	pelvis_tz	hip_flexion_r	hip_adduction_r	hip_rotation_r	knee_angle_r	knee_angle_r_beta	ankle_angle_r	subtalar_angle_r	mtp_angle_r	hip_flexion_l	hip_adduction_l	hip_rotation_l	knee_angle_l	knee_angle_l_beta	ankle_angle_l	subtalar_angle_l	mtp_angle_l	lumbar_extension	lumbar_bending	lumbar_rotation	arm_flex_r	arm_add_r	arm_rot_r	elbow_flex_r	pro_sup_r	wrist_flex_r	wrist_dev_r	arm_flex_l	arm_add_l	arm_rot_l	elbow_flex_l	pro_sup_l	wrist_flex_l	wrist_dev_l
      1.33888889	     11.72615767	    -10.86419670	    -89.90742838	      0.81583999	      0.73608226	      0.21300203	     33.50313367	    -55.43347511	     30.45547568	     44.44244613	      0.77566701	     10.18089794	      0.00000000	      0.00000000	     32.56834830	    -37.56894730	      7.92216180	     33.57446250	      0.58598492	     14.12884774	      0.00000000	      0.00000000	    -35.63149228	     14.05611602	    -22.37470097	    -62.93602146	    -64.62076538	     -3.56540910	     28.55456453	     76.29653049	      0.00000000	      0.00000000	     26.69833830	    -64.34243094	     99.61854580	     21.31630166	     29.43073030	      0.00000000	      0.00000000
      1.34166667	     11.69499931	    -10.62890576	    -89.90448881	      0.82199003	      0.73402092	      0.21352053	     33.28642981	    -55.41239715	     31.26070960	     43.96023761	      0.76725089	      9.72616462	      0.00000000	      0.00000000	     32.57766500	    -38.18908262	      6.55547934	     34.16190520	      0.59623772	     14.40467444	      0.00000000	      0.00000000	    -35.32581394	     13.94396944	    -22.47724592	    -64.52374888	    -64.07905307	     -5.13193226	     29.99889894	     76.08710945	      0.00000000	      0.00000000	     25.69859090	    -65.97275090	     99.85673481	     23.59050338	     29.41227197	      0.00000000	      0.00000000
      1.34444444	     11.56292517	    -10.37791500	    -89.89882996	      0.82803451	      0.73200002	      0.21400505	     32.98258570	    -55.29885837	     31.93634061	     43.50779426	      0.75935426	      9.26254788	      0.00000000	      0.00000000	     32.68542901	    -38.92051606	      5.18327594	     34.79392904	      0.60726862	     14.67776759	      0.00000000	      0.00000000	    -35.01257272	     13.88304334	    -22.63320200	    -65.56017393	    -63.75022075	     -5.76424452	     31.22908974	     76.01339286	      0.00000000	      0.00000000	     24.63701398	    -67.69204079	    100.25236618	     25.95239163	     29.65545330	      0.00000000	      0.00000000
      1.34722222	     11.72002495	    -10.17514885	    -89.89834753	      0.83427218	      0.72981112	      0.21450200	     32.97852516	    -55.41672565	     33.16812391	     43.08844417	      0.75203522	      8.74859516	      0.00000000	      0.00000000	     32.51364464	    -39.39177485	      3.56390321	     35.39142440	      0.61769688	     15.01979827	      0.00000000	      0.00000000	    -34.71097048	     13.56472742	    -22.77623436	    -67.45267982	    -62.90682517	     -8.50752923	     33.14741663	     75.68634621	      0.00000000	      0.00000000	     23.39587802	    -69.42383191	     99.80482581	     28.54118068	     29.10512362	      0.00000000	      0.00000000
      1.35000000	     11.68531488	     -9.95909403	    -89.89500662	      0.84037853	      0.72761279	      0.21494858	     32.80734558	    -55.34012946	     34.18792698	     42.75893732	      0.74628424	      8.23568539	      0.00000000	      0.00000000	     32.53245392	    -40.05960720	      2.04249689	     36.09187225	      0.62992200	     15.35535653	      0.00000000	      0.00000000	    -34.40922909	     13.37758486	    -22.92195778	    -68.76010010	    -62.30134476	    -10.15431525	     34.75680262	     75.62594066	      0.00000000	      0.00000000	     22.14825590	    -71.28166044	     99.62984783	     31.28766554	     28.86859426	      0.00000000	      0.00000000
      1.35277778	     11.66858181	     -9.67919336	    -89.89076371	      0.84666260	      0.72526580	      0.21552159	     32.72372160	    -55.30312921	     35.24054627	     42.41875138	      0.74034688	      7.69630293	      0.00000000	      0.00000000	     32.59389332	    -40.72027989	      0.45878332	     36.80769015	      0.64241538	     15.71561224	      0.00000000	      0.00000000	    -34.02385220	     13.18892276	    -23.22848146	    -70.05181147	    -61.77201398	    -12.23848773	     36.54947839	     76.35207419	      0.00000000	      0.00000000	     19.54894612	    -73.14693630	     97.89855680	     34.05618137	     27.76543273	      0.00000000	      0.00000000
      1.35555556	     11.58479794	     -9.48320029	    -89.88445819	      0.85274700	      0.72301824	      0.21588306	     32.52455375	    -55.16207770	     36.29479175	     42.17617215	      0.73611307	      7.14181524	      0.00000000	      0.00000000	     32.61439783	    -41.44853247	     -1.07765700	     37.54308460	      0.65525044	     16.06820154	      0.00000000	      0.00000000	    -33.72701800	     12.97900839	    -23.34720814	    -71.05635877	    -61.19331347	    -13.47154229	     38.06578926	     76.16555066	      0.00000000	      0.00000000	     18.39827380	    -75.09809997	     98.04894325	     36.96912385	     27.97044852	      0.00000000	      0.00000000
      1.35833333	     11.79563551	     -9.26712535	    -89.88295072	      0.85908924	      0.72057786	      0.21640898	     32.68163828	    -55.30868513	     37.78427763	     41.92129578	      0.73166464	      6.53372616	      0.00000000	      0.00000000	     32.42713059	    -41.94004748	     -2.98412866	     38.29463443	      0.66836746	     16.48554164	      0.00000000	      0.00000000	    -33.35784180	     12.52832106	    -23.53675921	    -72.62811485	    -60.10425632	    -16.42907742	     40.24251596	     75.93860413	      0.00000000	      0.00000000	     16.42210884	    -76.85024674	     97.17193509	     39.64715137	     27.17504170	      0.00000000	      0.00000000
      1.36111111	     11.77416381	     -8.94624291	    -89.87675521	      0.86536809	      0.71797328	      0.21708331	     32.70753808	    -55.21528912	     39.05138278	     41.76009382	      0.72885113	      5.93792107	      0.00000000	      0.00000000	     32.53025600	    -42.64867926	     -4.63802496	     39.11309236	      0.68265224	     16.92522152	      0.00000000	      0.00000000	    -32.94372931	     12.27318166	    -24.35497879	    -73.21727504	    -60.18012749	    -17.81485816	     42.07026184	     76.74289785	      0.00000000	      0.00000000	      5.49279651	    -78.84652392	     85.68802752	     42.49811734	     27.21035875	      0.00000000	      0.00000000
      1.36388889	     11.80011463	     -8.71387341	    -89.87121755	      0.87164621	      0.71554262	      0.21746764	     32.68781513	    -55.15828401	     40.39362206	     41.58368804	      0.72577227	      5.29766964	      0.00000000	      0.00000000	     32.48555385	    -43.31297827	     -6.41555749	     39.93292390	      0.69696100	     17.27293051	      0.00000000	      0.00000000	    -32.59090459	     11.91773551	    -24.66942093	    -74.05933357	    -59.51931317	    -19.67242416	     43.94083554	     77.09472249	      0.00000000	      0.00000000	     -1.54416326	    -80.62984743	     79.60681362	     45.48781975	     26.18834616	      0.00000000	      0.00000000
      1.36666667	     11.83365763	     -8.39553173	    -89.86505023	      0.87797765	      0.71261124	      0.21809621	     32.87550725	    -55.06535754	     41.92808879	     41.59123911	      0.72590406	      4.63902757	      0.00000000	      0.00000000	     32.55999452	    -43.99880410	     -8.11078691	     40.84162274	      0.71282079	     17.72695692	      0.00000000	      0.00000000	    -32.12606073	     11.55729564	    -25.26827082	    -74.98140033	    -59.12236661	    -21.64043664	     46.01804950	     77.16499344	      0.00000000	      0.00000000	    -16.70576589	    -81.92586502	     64.69745471	     48.20803576	     26.30545554	      0.00000000	      0.00000000
      1.36944444	     11.78811484	     -8.11035632	    -89.85785606	      0.88454519	      0.71011017	      0.21881595	     32.82105681	    -54.90250569	     43.37246041	     41.53578919	      0.72493628	      3.92338715	      0.00000000	      0.00000000	     32.55670793	    -44.74836584	     -9.89050428	     41.70146321	      0.72782784	     18.18211151	      0.00000000	      0.00000000	    -31.57798936	     11.30960990	    -24.95340950	    -76.53682946	    -57.45482556	    -24.60206789	     48.18440340	     76.99587789	      0.00000000	      0.00000000	    -18.87485111	    -83.23092473	     64.66421291	     50.39483882	     25.60812416	      0.00000000	      0.00000000
      1.37222222	     11.59162579	     -7.87991144	    -89.85006574	      0.89091752	      0.70765912	      0.21923625	     32.67114192	    -54.55595108	     44.66425602	     41.63660796	      0.72669590	      3.19178547	      0.00000000	      0.00000000	     32.63517533	    -45.65053763	    -11.50122117	     42.62398864	      0.74392894	     18.59599400	      0.00000000	      0.00000000	    -31.12439345	     11.13157107	    -24.50603077	    -77.65225896	    -55.84215270	    -26.82110261	     50.11572864	     76.92265802	      0.00000000	      0.00000000	    -20.74401497	    -84.82685919	     64.92302004	     52.92849132	     25.24393543	      0.00000000	      0.00000000
